<?xml version="1.0" encoding="UTF-8" standalone="no"?>
<svg width="35px" height="35px" viewBox="0 0 35 35" version="1.1" xmlns="http://www.w3.org/2000/svg" xmlns:xlink="http://www.w3.org/1999/xlink">
    <!-- Generator: Sketch 39.1 (31720) - http://www.bohemiancoding.com/sketch -->
    <title>crops-icon</title>
    <desc>Created with Sketch.</desc>
    <defs></defs>
    <g id="Page-1" stroke="none" stroke-width="1" fill="none" fill-rule="evenodd">
        <g id="crops-icon" fill="#FFFFFF">
            <path d="M32.5723625,3.29522715 L32.5230125,2.72157674 L31.9661621,2.57632664 C31.1135615,2.35337647 30.2347108,2.24067639 29.3527102,2.24067639 C26.9363085,2.24067639 24.5867568,3.09957701 22.7363054,4.65952814 C20.2856037,6.72697963 18.9475527,9.83113186 19.1036528,13.0262842 C18.9083527,13.2733843 18.7228525,13.5222345 18.5429524,13.7714347 C18.5335024,10.8790326 17.6245518,8.02058056 15.8738505,5.63672884 C13.2330986,2.03907625 8.9557455,-0.0819252805 4.47119227,0.00242478026 L3.89544186,0.0125747876 L3.71309173,0.558925181 C2.2899907,4.81737825 3.02359123,9.51578164 5.67519314,13.1260342 C7.9823948,16.2686865 11.5397974,18.279438 15.3912001,18.6836882 C15.4549002,19.3728387 15.3933001,20.0910393 15.1847,20.8802898 C15.0450499,21.4112402 14.9291998,21.9379906 14.8304997,22.460541 C14.8189497,22.522491 14.8077497,22.5837411 14.7961997,22.6449911 C14.7786997,22.7405412 14.7611997,22.8364412 14.7450997,22.9319913 C14.6936496,23.2326415 14.6491996,23.5276917 14.6106996,23.8181919 C14.0198992,22.9641913 13.2239986,22.2536908 12.2758479,21.7692905 C11.3819473,21.3128901 10.3826965,21.07174 9.38589581,21.07174 C8.35619507,21.07174 7.32859433,21.3254901 6.41474367,21.8056905 L5.90514331,22.0737907 L5.98669336,22.6432411 C6.27999358,24.6903926 7.55294449,26.4732939 9.39114582,27.4130445 C10.2850465,27.8697949 11.2846472,28.111295 12.2824979,28.111295 L12.2828479,28.111295 C13.0013984,28.111295 13.7178489,27.9849449 14.3964994,27.7469448 C14.4738495,31.5927475 15.3404501,34.2975495 15.3870001,34.4385996 C15.4164002,34.5281997 15.4601502,34.6083497 15.5140502,34.6793998 C15.5147502,34.6800998 15.5154502,34.6825498 15.5161502,34.6828998 L15.5165002,34.6825498 C15.6698003,34.8813499 15.9085005,35 16.1608507,35 C16.2448508,35 16.3302508,34.98705 16.4142509,34.95975 C16.8419512,34.8204499 17.0757514,34.3601995 16.9364513,33.9324992 C16.9347013,33.9272492 16.9130012,33.8589992 16.8769512,33.7329991 C16.8766012,33.7319491 16.8759012,33.7305491 16.8759012,33.7291491 C16.8531512,33.648999 16.8241012,33.543649 16.7915512,33.4186989 C16.7842011,33.3920988 16.7779011,33.3661988 16.7702011,33.3374988 C16.7635511,33.3112488 16.7565511,33.2828988 16.7492011,33.2552487 C16.7401011,33.2177987 16.7306511,33.1796487 16.7205011,33.1393987 C16.7142011,33.1141986 16.7082511,33.0879486 16.7019511,33.0609986 C16.6897011,33.0098986 16.6771011,32.9566985 16.6645011,32.9017485 C16.6599511,32.8821485 16.6557511,32.8632485 16.650851,32.8425984 C16.2886008,31.2539473 15.7594004,28.083995 16.1815007,24.3991924 C16.1874507,24.3480923 16.1934007,24.2980423 16.1997007,24.2469423 C16.2179007,24.0964421 16.2371508,23.945592 16.2592008,23.7933419 C16.2655008,23.7485419 16.2721508,23.7040919 16.2784508,23.6592918 C16.3033008,23.4919917 16.3295508,23.3239916 16.3586008,23.1552915 C16.3614008,23.1384915 16.3642008,23.1223914 16.3670008,23.1055914 C16.4699009,22.510591 16.599751,21.9061406 16.7604011,21.2957401 C16.7747511,21.2418401 16.7859511,21.18899 16.7992512,21.13579 C17.0201013,20.3150394 17.2868015,19.5201888 17.6000517,18.7515883 L17.6529018,18.7505383 L17.8352519,18.2041879 C17.8373519,18.1978879 17.8387519,18.1919379 17.8408519,18.1856379 C18.4677024,16.7761869 19.2562529,15.4580859 20.2033536,14.230985 C20.9054541,14.3793851 21.6222546,14.4584852 22.3408051,14.4584852 L22.3411551,14.4584852 C24.7582569,14.4584852 27.1088586,13.5992346 28.9586099,12.0396335 C31.5073118,9.89203191 32.8579627,6.62267955 32.5723625,3.29522715 L32.5723625,3.29522715 Z M6.98944409,12.1617835 C4.76624248,9.13463136 4.07184198,5.24052855 5.08719272,1.63587596 C8.82659541,1.74752604 12.3461979,3.58572736 14.5602995,6.60167954 C16.6830511,9.49198162 17.4082516,13.1718843 16.586101,16.6361868 C15.9088505,14.7934354 14.5473495,13.0346842 12.8634983,10.8597826 C12.1722478,9.96728196 11.3896473,8.95648123 10.5804467,7.84243043 C10.3161965,7.47808017 9.80624612,7.39758011 9.44224585,7.6618303 C9.07789559,7.92643049 8.99739553,8.43568086 9.26164572,8.80003112 C10.0855463,9.93438194 10.8761969,10.9560327 11.5740974,11.8576333 C13.1690485,13.9173848 14.3649994,15.4650859 14.9715498,16.987937 C11.8026476,16.4986367 8.90639547,14.7724354 6.98944409,12.1617835 L6.98944409,12.1617835 Z M12.2838979,26.4813439 L12.2838979,26.4813439 C11.5320974,26.4813439 10.8086468,26.3063437 10.1341964,25.9615935 C8.9462955,25.354693 8.07654487,24.2745923 7.72479462,23.0030414 C8.256095,22.8052912 8.82064541,22.7023911 9.38694581,22.7023911 C10.1376964,22.7023911 10.8607969,22.8770413 11.5352474,23.2214415 C12.7227982,23.8283419 13.5932488,24.9087927 13.9453491,26.1810436 C13.4140487,26.3784438 12.8491483,26.4813439 12.2838979,26.4813439 L12.2838979,26.4813439 Z M27.9089592,10.7936326 C26.352858,12.1061335 24.3757066,12.828534 22.3422052,12.828534 C22.0401549,12.828534 21.7381047,12.811034 21.4378045,12.779534 C22.8542555,11.2640329 24.5437067,9.90883192 26.5061582,8.72023106 C26.8915084,8.48713089 27.0143585,7.98593053 26.7809083,7.60093026 C26.5478082,7.21592998 26.0466078,7.09307989 25.6616075,7.32583006 C23.7565562,8.47978089 22.168955,9.7467818 20.8417541,11.0746828 C21.1809043,9.07863132 22.2099051,7.23587999 23.7877062,5.90517903 C25.3438073,4.59302809 27.3206087,3.87027757 29.3527102,3.87027757 C29.8987106,3.87027757 30.442961,3.9213776 30.9784614,4.02357768 C31.0239614,6.61742955 29.9018606,9.11363135 27.9089592,10.7936326 L27.9089592,10.7936326 Z" id="Shape"></path>
        </g>
    </g>
</svg>