<?xml version="1.0" encoding="UTF-8" standalone="no"?>
<svg width="35px" height="35px" viewBox="0 0 35 35" version="1.1" xmlns="http://www.w3.org/2000/svg" xmlns:xlink="http://www.w3.org/1999/xlink">
    <!-- Generator: Sketch 39.1 (31720) - http://www.bohemiancoding.com/sketch -->
    <title>dashboard-icon</title>
    <desc>Created with Sketch.</desc>
    <defs></defs>
    <g id="Page-1" stroke="none" stroke-width="1" fill="none" fill-rule="evenodd">
        <g id="dashboard-icon" fill="#FFFFFF">
            <g id="Group" transform="translate(0.000000, 7.000000)">
                <path d="M31.4539474,10.9144737 C30.9934211,11.1447368 30.8552632,11.6973684 31.0855263,12.1578947 C32.2368421,14.3684211 32.8355263,16.8092105 32.8355263,19.3421053 C32.8355263,19.8486842 33.25,20.2631579 33.7565789,20.2631579 C34.2631579,20.2631579 34.6776316,19.8486842 34.6776316,19.3421053 C34.6776316,16.5328947 33.9868421,13.7697368 32.6973684,11.3289474 C32.4671053,10.8684211 31.9144737,10.6842105 31.4539474,10.9144737 L31.4539474,10.9144737 Z" id="Shape"></path>
                <path d="M31.5460526,0.506578947 C31.1315789,0.184210526 30.5789474,0.276315789 30.2565789,0.690789474 L26.6184211,5.52631579 C26.7105263,5.15789474 26.5723684,4.69736842 26.2039474,4.51315789 C23.5789474,2.94736842 20.5394737,2.11842105 17.5,2.11842105 C8.01315789,2.11842105 0.322368421,9.80921053 0.322368421,19.2960526 C0.322368421,19.8026316 0.736842105,20.2171053 1.24342105,20.2171053 C1.75,20.2171053 2.16447368,19.8026316 2.16447368,19.2960526 C2.16447368,10.8223684 9.07236842,3.96052632 17.5,3.96052632 C20.2631579,3.96052632 22.9342105,4.69736842 25.2828947,6.07894737 C25.6052632,6.26315789 25.9276316,6.21710526 26.25,6.07894737 L16.7631579,18.7894737 C16.4407895,19.2039474 16.5328947,19.7565789 16.9473684,20.0789474 C17.1315789,20.2171053 17.3157895,20.2631579 17.5,20.2631579 C17.7763158,20.2631579 18.0526316,20.125 18.2368421,19.8947368 L31.7302632,1.79605263 C32.0526316,1.38157895 31.9605263,0.828947368 31.5460526,0.506578947 L31.5460526,0.506578947 Z" id="Shape"></path>
            </g>
        </g>
    </g>
</svg>