<svg version="1.1" id="Layer_1" xmlns="http://www.w3.org/2000/svg" xmlns:xlink="http://www.w3.org/1999/xlink" x="0px" y="0px"
	 viewBox="0 0 65 65" enable-background="new 0 0 65 65" xml:space="preserve">
<g>
	<path fill="#FFFFFF" d="M48.5,28.8H15c-0.3,0-0.6-0.3-0.6-0.6v-2c0-0.3,0.3-0.6,0.6-0.6h33.5c0.3,0,0.6,0.3,0.6,0.6v2
		C49.2,28.6,48.9,28.8,48.5,28.8z"/>
	<path fill="#FFFFFF" d="M48.5,38.8H15c-0.3,0-0.6-0.3-0.6-0.6v-2c0-0.3,0.3-0.6,0.6-0.6h33.5c0.3,0,0.6,0.3,0.6,0.6v2
		C49.2,38.6,48.9,38.8,48.5,38.8z"/>
	<path fill="#FFFFFF" d="M46,8.3h-9c-0.3-1.9-2.5-3.3-5.2-3.3s-4.9,1.5-5.2,3.3h-9l-4,8H50L46,8.3z"/>
	<path fill="#FFFFFF" d="M54.5,10.6h-5l1.5,3h3.5c0.9,0,1.5,0.7,1.5,1.5V56c0,0.9-0.7,1.5-1.5,1.5H8.9c-0.9,0-1.5-0.7-1.5-1.5V15.1
		c0-0.9,0.7-1.5,1.5-1.5h3.7l1.5-3H8.9c-2.5,0-4.5,2-4.5,4.5V56c0,2.5,2,4.5,4.5,4.5h45.6c2.5,0,4.5-2,4.5-4.5V15.1
		C59,12.6,57,10.6,54.5,10.6z"/>
</g>
</svg>
