<?xml version="1.0" encoding="UTF-8" standalone="no"?>
<svg width="35px" height="35px" viewBox="0 0 35 35" version="1.1" xmlns="http://www.w3.org/2000/svg" xmlns:xlink="http://www.w3.org/1999/xlink">
    <!-- Generator: Sketch 39.1 (31720) - http://www.bohemiancoding.com/sketch -->
    <title>nutrients-icon</title>
    <desc>Created with Sketch.</desc>
    <defs></defs>
    <g id="Page-1" stroke="none" stroke-width="1" fill="none" fill-rule="evenodd">
        <g id="nutrients-icon" fill="#FFFFFF">
            <path d="M10.7055319,7.47721457 L5.29876103,10.8859375 C5.08657353,11.019375 4.9582402,11.2527083 4.9582402,11.5028125 L4.9582402,17.7838542 L0.324386028,20.8733333 C-0.0103014716,21.0971875 -0.100718138,21.55 0.122406862,21.8846875 C0.345531862,22.219375 0.798344362,22.3090625 1.13376103,22.0866667 L5.71973231,19.0289029 L10.6544902,21.808125 C10.7682402,21.8722917 10.8907402,21.9021875 11.0117819,21.9021875 C11.2669902,21.9021875 11.5141777,21.76875 11.6476152,21.5310417 C11.8459485,21.1803125 11.721261,20.7355208 11.3705319,20.5379167 L6.41657353,17.7478809 L6.41657353,11.9053125 L11.3267819,8.80927083 L16.5869902,11.9760417 L16.5869902,18.1739583 C16.5869902,18.4444792 16.7371985,18.693125 16.9763652,18.8192708 L22.2788652,21.6134375 L22.2788652,27.9061458 C22.2788652,28.1664583 22.4174069,28.4070833 22.6441777,28.5376042 L28.2755319,31.783125 C28.3878235,31.8480208 28.5139694,31.8808333 28.639386,31.8808333 C28.7728235,31.8808333 28.906261,31.844375 29.0236569,31.7707292 L34.655011,28.2802083 C34.869386,28.1475 34.9999069,27.9127083 34.9999069,27.6604167 L34.9999069,21.2955208 C34.9999069,20.8922917 34.6739694,20.5663542 34.2707402,20.5663542 C33.867511,20.5663542 33.5415735,20.8922917 33.5415735,21.2955208 L33.5415735,27.255 L28.6255319,30.3014583 L23.7371985,27.4839583 L23.7371985,21.6013593 L29.1789694,18.56625 C29.4101152,18.4371875 29.5530319,18.1936458 29.5530319,17.9296875 L29.5530319,11.8688542 C29.5530319,11.4663542 29.2270944,11.1396875 28.8238652,11.1396875 C28.420636,11.1396875 28.0946985,11.4663542 28.0946985,11.8688542 L28.0946985,17.5009375 L22.9989301,20.3438327 L18.0460527,17.7335417 L18.0460527,11.5633333 C18.0460527,11.3073958 17.9126152,11.0704167 17.693136,10.9384375 L12.1638652,7.60985141 L12.1638652,3.72916667 C12.1638652,3.32666667 11.8371985,3 11.4346985,3 C11.0321985,3 10.7055319,3.32666667 10.7055319,3.72916667 L10.7055319,7.47721457 L10.7055319,7.47721457 Z" id="Combined-Shape"></path>
        </g>
    </g>
</svg>