<?xml version="1.0" encoding="UTF-8" standalone="no"?>
<svg width="35px" height="35px" viewBox="0 0 35 35" version="1.1" xmlns="http://www.w3.org/2000/svg" xmlns:xlink="http://www.w3.org/1999/xlink">
    <!-- Generator: Sketch 39.1 (31720) - http://www.bohemiancoding.com/sketch -->
    <title>tasks-icon</title>
    <desc>Created with Sketch.</desc>
    <defs></defs>
    <g id="Page-1" stroke="none" stroke-width="1" fill="none" fill-rule="evenodd">
        <g id="tasks-icon" fill="#FFFFFF">
            <g id="Group" transform="translate(0.000000, 3.000000)">
                <rect id="Rectangle-path" x="11.375" y="3.5" width="23.625" height="1.75"></rect>
                <rect id="Rectangle-path" x="11.375" y="14" width="23.625" height="1.75"></rect>
                <rect id="Rectangle-path" x="11.375" y="24.5" width="11.375" height="1.75"></rect>
                <path d="M7,8.75 L1.75,8.75 C0.784875,8.75 0,7.965125 0,7 L0,1.75 C0,0.784875 0.784875,0 1.75,0 L7,0 C7.965125,0 8.75,0.784875 8.75,1.75 L8.75,7 C8.75,7.965125 7.965125,8.75 7,8.75 L7,8.75 Z M1.75,1.75 L1.75,7 L7.000875,7 L7,1.75 L1.75,1.75 L1.75,1.75 Z" id="Shape"></path>
                <path d="M7,19.25 L1.75,19.25 C0.784875,19.25 0,18.465125 0,17.5 L0,12.25 C0,11.284875 0.784875,10.5 1.75,10.5 L7,10.5 C7.965125,10.5 8.75,11.284875 8.75,12.25 L8.75,17.5 C8.75,18.465125 7.965125,19.25 7,19.25 L7,19.25 Z M1.75,12.25 L1.75,17.5 L7.000875,17.5 L7,12.25 L1.75,12.25 L1.75,12.25 Z" id="Shape"></path>
                <path d="M7,29.75 L1.75,29.75 C0.784875,29.75 0,28.965125 0,28 L0,22.75 C0,21.784875 0.784875,21 1.75,21 L7,21 C7.965125,21 8.75,21.784875 8.75,22.75 L8.75,28 C8.75,28.965125 7.965125,29.75 7,29.75 L7,29.75 Z M1.75,22.75 L1.75,28 L7.000875,28 L7,22.75 L1.75,22.75 L1.75,22.75 Z" id="Shape"></path>
            </g>
        </g>
    </g>
</svg>